<svg aria-hidden="true" style="position: absolute; width: 0; height: 0; overflow: hidden;" version="1.1" xmlns="http://www.w3.org/2000/svg" xmlns:xlink="http://www.w3.org/1999/xlink">
<defs>
<symbol id="icon-cart" viewBox="0 0 35 32">
<path  d="M32.782 21.757h-22.653l1.137-2.317 18.901-0.035c0.647-0 1.186-0.465 1.3-1.080l0.001-0.008 2.617-14.65c0.013-0.070 0.021-0.151 0.021-0.234 0-0.728-0.589-1.319-1.317-1.322l-24.045-0.081-0.206-0.966c-0.136-0.612-0.673-1.064-1.316-1.066h-5.879c-0.742 0-1.343 0.601-1.343 1.343s0.601 1.343 1.343 1.343v0h4.79l0.897 4.269 2.211 10.702-2.847 4.646c-0.163 0.218-0.261 0.494-0.261 0.792 0 0.222 0.054 0.431 0.151 0.615l-0.003-0.007c0.23 0.452 0.689 0.737 1.199 0.737h2.389c-0.488 0.645-0.782 1.46-0.782 2.344 0 2.156 1.746 3.903 3.901 3.907h0c2.155-0.004 3.9-1.752 3.9-3.907 0-0.883-0.293-1.698-0.788-2.353l0.007 0.010h6.129c-0.488 0.645-0.782 1.46-0.782 2.344 0 2.156 1.746 3.903 3.901 3.907h0c2.156-0.003 3.902-1.751 3.902-3.907 0-0.884-0.294-1.7-0.789-2.354l0.007 0.010h4.31c0.737 0 1.343-0.601 1.343-1.344-0.006-0.74-0.606-1.338-1.347-1.338h-0zM9.302 4.679l21.905 0.072-2.145 12.014-17.208 0.031-2.552-12.117zM12.989 27.989c-0.664-0.001-1.202-0.538-1.203-1.202v-0c0-0.662 0.54-1.202 1.202-1.202 0.663 0.004 1.198 0.542 1.198 1.205 0 0.33-0.133 0.63-0.348 0.847l0-0c-0.217 0.217-0.517 0.352-0.849 0.352h-0zM25.357 27.989c-0.664-0.001-1.202-0.538-1.203-1.202v-0c0-0.662 0.541-1.202 1.203-1.202 0.662 0.004 1.197 0.542 1.197 1.205 0 0.33-0.133 0.63-0.348 0.847l0-0c-0.217 0.217-0.517 0.352-0.849 0.352h-0z"></path>
</symbol>
<symbol id="icon-like" viewBox="0 0 36 32">
<path stroke-linejoin="round" stroke-linecap="round" stroke-miterlimit="4" stroke-width="2.7826" d="M9.507 1.391c-4.48 0-8.115 3.597-8.115 8.035 0 3.583 1.419 12.085 15.402 20.679 0.237 0.146 0.524 0.233 0.831 0.233s0.594-0.087 0.838-0.237l-0.007 0.004c13.981-8.594 15.402-17.096 15.402-20.679-0.001-4.438-3.637-8.035-8.117-8.035-4.481 0-8.115 4.87-8.115 4.87s-3.634-4.87-8.117-4.87z"></path>
</symbol>
<symbol id="icon-search" viewBox="0 0 32 32">
<path stroke-linejoin="miter" stroke-linecap="round" stroke-miterlimit="4" stroke-width="2.56" d="M29.653 29.653l-6.699-6.711M26.667 13.973c0 3.366-1.337 6.595-3.718 8.976s-5.609 3.718-8.976 3.718c-3.367 0-6.595-1.337-8.976-3.718s-3.718-5.609-3.718-8.976c0-3.367 1.337-6.595 3.718-8.976s5.609-3.718 8.976-3.718c3.366 0 6.595 1.337 8.976 3.718s3.718 5.609 3.718 8.976v0z"></path>
</symbol>
<symbol id="icon-person" viewBox="0 0 40 32">
<path d="M35.368 15.719v-9.824h3.929v11.789h-3.929zM35.368 25.544h3.929v-3.931h-3.929zM15.719 17.684c5.246 0 15.72 2.632 15.72 7.86v5.895h-31.439v-5.895c0-5.228 10.472-7.86 15.719-7.86zM15.719 0c4.341 0 7.86 3.519 7.86 7.86s-3.519 7.86-7.86 7.86v0c-4.341 0-7.86-3.519-7.86-7.86s3.519-7.86 7.86-7.86v0zM15.719 21.418c-5.836 0-11.985 2.868-11.985 4.126v2.161h23.971v-2.161c0-1.258-6.151-4.126-11.987-4.126zM15.719 3.734c-2.279 0-4.126 1.847-4.126 4.126s1.847 4.126 4.126 4.126v0c2.279 0 4.126-1.847 4.126-4.126s-1.847-4.126-4.126-4.126v0z"></path>
</symbol>
<symbol id="icon-heart" viewBox="0 0 32 32">
<path stroke-linejoin="miter" stroke-linecap="butt" stroke-miterlimit="4" stroke-width="3.6" d="M15.999 28.072c-26.666-14.739-7.999-30.739 0-20.621 8.001-10.117 26.667 5.883 0 20.621z"></path>
</symbol>
<symbol id="icon-compare" viewBox="0 0 32 32">
<path d="M20.16 14l2 2 6.88-6.9-7.040-7.1-2 2 3.6 3.6h-19.6v2.8h19.64l-3.48 3.6zM11.72 18l-2-2-6.88 7 6.98 7 2-2-3.62-3.6h19.8v-2.8h-19.8l3.52-3.6z"></path>
</symbol>
<symbol id="icon-share" viewBox="0 0 32 32">
<path d="M24 21.333c-1.051 0-2 0.413-2.712 1.076l-9.408-5.476c0.067-0.307 0.12-0.613 0.12-0.933s-0.053-0.627-0.12-0.933l9.4-5.48c0.72 0.667 1.667 1.080 2.72 1.080 2.213 0 4-1.787 4-4s-1.787-4-4-4c-2.213 0-4 1.787-4 4 0 0.32 0.053 0.627 0.12 0.933l-9.4 5.48c-0.72-0.667-1.667-1.080-2.72-1.080-2.213 0-4 1.787-4 4s1.787 4 4 4c1.053 0 2-0.413 2.72-1.080l9.397 5.491c-0.075 0.302-0.115 0.612-0.117 0.923 0 0.791 0.235 1.564 0.674 2.222s1.064 1.171 1.795 1.473c0.731 0.303 1.535 0.382 2.311 0.228s1.489-0.535 2.048-1.095 0.94-1.272 1.095-2.048c0.154-0.776 0.075-1.58-0.228-2.311s-0.816-1.356-1.473-1.795c-0.658-0.439-1.431-0.674-2.222-0.674z"></path>
</symbol>
<symbol id="icon-arrow-right" viewBox="0 0 32 32">
<path stroke-linejoin="round" stroke-linecap="round" stroke-miterlimit="4" stroke-width="2" d="M28 16h-24M28 16l-8-8M28 16l-8 8"></path>
</symbol>
</defs>
</svg>
